<mxfile host="app.diagrams.net" modified="2023-04-01T15:16:25.308Z" agent="Mozilla/5.0 (Windows NT 10.0; Win64; x64) AppleWebKit/537.36 (KHTML, like Gecko) Chrome/111.0.0.0 Safari/537.36" etag="Sp4T2S1-Ro-MaJ9ybqNA" version="21.1.2" type="github">
  <diagram name="Page-1" id="o6SSl2_z5C2vus49G62G">
    <mxGraphModel dx="1434" dy="1864" grid="1" gridSize="10" guides="1" tooltips="1" connect="1" arrows="1" fold="1" page="1" pageScale="1" pageWidth="850" pageHeight="1100" math="0" shadow="0">
      <root>
        <mxCell id="0" />
        <mxCell id="1" parent="0" />
        <mxCell id="3uG8G9ZaTZoT1gMZAGrr-69" value="Miosis" style="rounded=1;whiteSpace=wrap;html=1;align=right;fontSize=16;fontStyle=1;fillColor=#81AAFC;strokeColor=#6c8ebf;gradientColor=#3462E0;fontColor=#FFFFFF;verticalAlign=top;spacingLeft=0;spacingRight=15;" parent="1" vertex="1">
          <mxGeometry x="101" y="278" width="180" height="75" as="geometry" />
        </mxCell>
        <mxCell id="3uG8G9ZaTZoT1gMZAGrr-68" value="Midriasis" style="rounded=1;whiteSpace=wrap;html=1;align=left;spacingRight=0;spacingLeft=140;fontSize=16;fontStyle=1;fillColor=#ffcd28;strokeColor=#d79b00;gradientColor=#ffa500;verticalAlign=top;fontColor=#000000;labelBorderColor=none;" parent="1" vertex="1">
          <mxGeometry x="300" y="278" width="541" height="75" as="geometry" />
        </mxCell>
        <mxCell id="3uG8G9ZaTZoT1gMZAGrr-1" value="Intoxicaciones" style="text;strokeColor=none;fillColor=none;html=1;fontSize=24;fontStyle=1;verticalAlign=middle;align=left;fontColor=#CC6600;" parent="1" vertex="1">
          <mxGeometry x="40" y="80" width="180" height="40" as="geometry" />
        </mxCell>
        <mxCell id="3uG8G9ZaTZoT1gMZAGrr-2" value="Estupor" style="ellipse;fillColor=#cce5ff;strokeColor=#36393d;fontSize=15;" parent="1" vertex="1">
          <mxGeometry x="236.10000000000002" y="180" width="104" height="50" as="geometry" />
        </mxCell>
        <mxCell id="3uG8G9ZaTZoT1gMZAGrr-4" value="" style="edgeStyle=elbowEdgeStyle;elbow=vertical;entryX=0.5;entryY=0;entryDx=0;entryDy=0;" parent="1" source="3uG8G9ZaTZoT1gMZAGrr-2" target="3uG8G9ZaTZoT1gMZAGrr-71" edge="1">
          <mxGeometry relative="1" as="geometry">
            <mxPoint x="182.0023437499999" y="308" as="targetPoint" />
          </mxGeometry>
        </mxCell>
        <mxCell id="3uG8G9ZaTZoT1gMZAGrr-5" value="Seco" style="rounded=1;fillColor=#fff2cc;strokeColor=#d6b656;perimeterSpacing=0;strokeWidth=1;gradientColor=#ffd966;" parent="1" vertex="1">
          <mxGeometry x="330.19765625" y="308" width="80" height="30" as="geometry" />
        </mxCell>
        <mxCell id="3uG8G9ZaTZoT1gMZAGrr-6" value="" style="edgeStyle=elbowEdgeStyle;elbow=vertical;" parent="1" source="3uG8G9ZaTZoT1gMZAGrr-2" target="3uG8G9ZaTZoT1gMZAGrr-5" edge="1">
          <mxGeometry relative="1" as="geometry" />
        </mxCell>
        <mxCell id="3uG8G9ZaTZoT1gMZAGrr-7" value="Colinergico" style="rounded=1;fillColor=#b0e3e6;strokeColor=#0e8088;" parent="1" vertex="1">
          <mxGeometry x="82.00234375000002" y="388" width="80" height="30" as="geometry" />
        </mxCell>
        <mxCell id="3uG8G9ZaTZoT1gMZAGrr-8" value="" style="edgeStyle=elbowEdgeStyle;elbow=vertical;" parent="1" target="3uG8G9ZaTZoT1gMZAGrr-7" edge="1">
          <mxGeometry relative="1" as="geometry">
            <mxPoint x="182" y="338" as="sourcePoint" />
          </mxGeometry>
        </mxCell>
        <mxCell id="3uG8G9ZaTZoT1gMZAGrr-9" value="Opioide" style="rounded=1;fillColor=#cdeb8b;strokeColor=#36393d;" parent="1" vertex="1">
          <mxGeometry x="202.00234375000002" y="388" width="80" height="30" as="geometry" />
        </mxCell>
        <mxCell id="3uG8G9ZaTZoT1gMZAGrr-10" value="" style="edgeStyle=elbowEdgeStyle;elbow=vertical;exitX=0.5;exitY=1;exitDx=0;exitDy=0;" parent="1" source="3uG8G9ZaTZoT1gMZAGrr-71" target="3uG8G9ZaTZoT1gMZAGrr-9" edge="1">
          <mxGeometry relative="1" as="geometry" />
        </mxCell>
        <mxCell id="3uG8G9ZaTZoT1gMZAGrr-11" value="Hipnotico sedante" style="rounded=1;fillColor=#b1ddf0;strokeColor=#10739e;" parent="1" vertex="1">
          <mxGeometry x="319.03999999999996" y="388" width="100.96" height="30" as="geometry" />
        </mxCell>
        <mxCell id="3uG8G9ZaTZoT1gMZAGrr-12" value="" style="edgeStyle=elbowEdgeStyle;elbow=vertical;" parent="1" source="3uG8G9ZaTZoT1gMZAGrr-5" target="3uG8G9ZaTZoT1gMZAGrr-11" edge="1">
          <mxGeometry relative="1" as="geometry" />
        </mxCell>
        <mxCell id="3uG8G9ZaTZoT1gMZAGrr-13" value="Rivastigmina &#xa;Organofosforados" style="rounded=1;fillColor=#b0e3e6;strokeColor=#0e8088;" parent="1" vertex="1">
          <mxGeometry x="71" y="468" width="101" height="30" as="geometry" />
        </mxCell>
        <mxCell id="3uG8G9ZaTZoT1gMZAGrr-14" value="" style="edgeStyle=elbowEdgeStyle;elbow=vertical;fillColor=#b0e3e6;strokeColor=#0e8088;" parent="1" source="3uG8G9ZaTZoT1gMZAGrr-7" target="3uG8G9ZaTZoT1gMZAGrr-13" edge="1">
          <mxGeometry relative="1" as="geometry" />
        </mxCell>
        <mxCell id="3uG8G9ZaTZoT1gMZAGrr-15" value="Heroina&#xa;morfina, etc" style="rounded=1;fillColor=#cdeb8b;strokeColor=#36393d;" parent="1" vertex="1">
          <mxGeometry x="202.00234375000002" y="468" width="80" height="30" as="geometry" />
        </mxCell>
        <mxCell id="3uG8G9ZaTZoT1gMZAGrr-16" value="" style="edgeStyle=elbowEdgeStyle;elbow=vertical;fillColor=#cdeb8b;strokeColor=#36393d;" parent="1" source="3uG8G9ZaTZoT1gMZAGrr-9" target="3uG8G9ZaTZoT1gMZAGrr-15" edge="1">
          <mxGeometry relative="1" as="geometry" />
        </mxCell>
        <mxCell id="3uG8G9ZaTZoT1gMZAGrr-17" value="Diarrea, &#xa;olor a gasolina" style="rounded=1;fillColor=#b0e3e6;strokeColor=#0e8088;" parent="1" vertex="1">
          <mxGeometry x="82.00234375000002" y="548" width="80" height="30" as="geometry" />
        </mxCell>
        <mxCell id="3uG8G9ZaTZoT1gMZAGrr-18" value="" style="edgeStyle=elbowEdgeStyle;elbow=vertical;fillColor=#b0e3e6;strokeColor=#0e8088;" parent="1" source="3uG8G9ZaTZoT1gMZAGrr-13" target="3uG8G9ZaTZoT1gMZAGrr-17" edge="1">
          <mxGeometry relative="1" as="geometry" />
        </mxCell>
        <mxCell id="3uG8G9ZaTZoT1gMZAGrr-19" value="Estreñimiento" style="rounded=1;fillColor=#cdeb8b;strokeColor=#36393d;" parent="1" vertex="1">
          <mxGeometry x="202.00234375000002" y="548" width="80" height="30" as="geometry" />
        </mxCell>
        <mxCell id="3uG8G9ZaTZoT1gMZAGrr-20" value="" style="edgeStyle=elbowEdgeStyle;elbow=vertical;fillColor=#cdeb8b;strokeColor=#36393d;" parent="1" source="3uG8G9ZaTZoT1gMZAGrr-15" target="3uG8G9ZaTZoT1gMZAGrr-19" edge="1">
          <mxGeometry relative="1" as="geometry" />
        </mxCell>
        <mxCell id="3uG8G9ZaTZoT1gMZAGrr-21" value="Benzo, alcohol&#xa;Barbituricos" style="rounded=1;fillColor=#b1ddf0;strokeColor=#10739e;" parent="1" vertex="1">
          <mxGeometry x="330.19765625" y="468" width="80" height="30" as="geometry" />
        </mxCell>
        <mxCell id="3uG8G9ZaTZoT1gMZAGrr-22" value="" style="edgeStyle=elbowEdgeStyle;elbow=vertical;fillColor=#b1ddf0;strokeColor=#10739e;" parent="1" source="3uG8G9ZaTZoT1gMZAGrr-11" target="3uG8G9ZaTZoT1gMZAGrr-21" edge="1">
          <mxGeometry relative="1" as="geometry" />
        </mxCell>
        <mxCell id="3uG8G9ZaTZoT1gMZAGrr-23" value="Estreñimiento" style="rounded=1;fillColor=#b1ddf0;strokeColor=#10739e;" parent="1" vertex="1">
          <mxGeometry x="330.19765625" y="548" width="80" height="30" as="geometry" />
        </mxCell>
        <mxCell id="3uG8G9ZaTZoT1gMZAGrr-24" value="" style="edgeStyle=elbowEdgeStyle;elbow=vertical;fillColor=#b1ddf0;strokeColor=#10739e;" parent="1" source="3uG8G9ZaTZoT1gMZAGrr-21" target="3uG8G9ZaTZoT1gMZAGrr-23" edge="1">
          <mxGeometry relative="1" as="geometry" />
        </mxCell>
        <mxCell id="3uG8G9ZaTZoT1gMZAGrr-25" value="1. Atropina&#xa;2. Pralidoxima para &#xa;Sintomas musculares" style="rounded=1;align=left;fillColor=#b0e3e6;strokeColor=#0e8088;" parent="1" vertex="1">
          <mxGeometry x="61" y="618" width="121" height="60" as="geometry" />
        </mxCell>
        <mxCell id="3uG8G9ZaTZoT1gMZAGrr-26" value="" style="edgeStyle=elbowEdgeStyle;elbow=vertical;fillColor=#b0e3e6;strokeColor=#0e8088;" parent="1" source="3uG8G9ZaTZoT1gMZAGrr-17" target="3uG8G9ZaTZoT1gMZAGrr-25" edge="1">
          <mxGeometry relative="1" as="geometry" />
        </mxCell>
        <mxCell id="3uG8G9ZaTZoT1gMZAGrr-27" value="Naloxona" style="rounded=1;fillColor=#cdeb8b;strokeColor=#36393d;" parent="1" vertex="1">
          <mxGeometry x="202.00234375000002" y="628" width="80" height="30" as="geometry" />
        </mxCell>
        <mxCell id="3uG8G9ZaTZoT1gMZAGrr-28" value="" style="edgeStyle=elbowEdgeStyle;elbow=vertical;fillColor=#cdeb8b;strokeColor=#36393d;" parent="1" source="3uG8G9ZaTZoT1gMZAGrr-19" target="3uG8G9ZaTZoT1gMZAGrr-27" edge="1">
          <mxGeometry relative="1" as="geometry" />
        </mxCell>
        <mxCell id="3uG8G9ZaTZoT1gMZAGrr-29" value="Flumacenil" style="rounded=1;fillColor=#b1ddf0;strokeColor=#10739e;" parent="1" vertex="1">
          <mxGeometry x="330.19765625" y="628" width="80" height="30" as="geometry" />
        </mxCell>
        <mxCell id="3uG8G9ZaTZoT1gMZAGrr-30" value="" style="edgeStyle=elbowEdgeStyle;elbow=vertical;fillColor=#b1ddf0;strokeColor=#10739e;" parent="1" source="3uG8G9ZaTZoT1gMZAGrr-23" target="3uG8G9ZaTZoT1gMZAGrr-29" edge="1">
          <mxGeometry relative="1" as="geometry" />
        </mxCell>
        <mxCell id="3uG8G9ZaTZoT1gMZAGrr-34" value="Flumacenilo esta contraindicado en cocaina y triciclicos" style="ellipse;shape=cloud;whiteSpace=wrap;html=1;fillColor=#cce5ff;strokeColor=#36393d;" parent="1" vertex="1">
          <mxGeometry x="101.00000000000003" y="765" width="140.96" height="100" as="geometry" />
        </mxCell>
        <mxCell id="3uG8G9ZaTZoT1gMZAGrr-37" value="Agitacion" style="ellipse;fillColor=#ffff88;strokeColor=#36393d;fontSize=15;" parent="1" vertex="1">
          <mxGeometry x="636.0999999999999" y="180" width="104" height="50" as="geometry" />
        </mxCell>
        <mxCell id="3uG8G9ZaTZoT1gMZAGrr-38" value="Humedo" style="rounded=1;fillColor=#CFEFFF;strokeColor=none;strokeWidth=1;gradientColor=#57ADD9;" parent="1" vertex="1">
          <mxGeometry x="542.0023437499999" y="308" width="80" height="30" as="geometry" />
        </mxCell>
        <mxCell id="3uG8G9ZaTZoT1gMZAGrr-39" value="" style="edgeStyle=elbowEdgeStyle;elbow=vertical;" parent="1" source="3uG8G9ZaTZoT1gMZAGrr-37" target="3uG8G9ZaTZoT1gMZAGrr-38" edge="1">
          <mxGeometry relative="1" as="geometry" />
        </mxCell>
        <mxCell id="3uG8G9ZaTZoT1gMZAGrr-40" value="Seco" style="rounded=1;fillColor=#fff2cc;strokeColor=#d6b656;perimeterSpacing=0;strokeWidth=1;gradientColor=#ffd966;" parent="1" vertex="1">
          <mxGeometry x="730.1976562499999" y="308" width="80" height="30" as="geometry" />
        </mxCell>
        <mxCell id="3uG8G9ZaTZoT1gMZAGrr-41" value="" style="edgeStyle=elbowEdgeStyle;elbow=vertical;" parent="1" source="3uG8G9ZaTZoT1gMZAGrr-37" target="3uG8G9ZaTZoT1gMZAGrr-40" edge="1">
          <mxGeometry relative="1" as="geometry" />
        </mxCell>
        <mxCell id="3uG8G9ZaTZoT1gMZAGrr-42" value="Simpaticomimetico" style="rounded=1;fillColor=#fad7ac;strokeColor=#b46504;" parent="1" vertex="1">
          <mxGeometry x="465" y="388" width="112" height="30" as="geometry" />
        </mxCell>
        <mxCell id="3uG8G9ZaTZoT1gMZAGrr-43" value="" style="edgeStyle=elbowEdgeStyle;elbow=vertical;" parent="1" source="3uG8G9ZaTZoT1gMZAGrr-38" target="3uG8G9ZaTZoT1gMZAGrr-42" edge="1">
          <mxGeometry relative="1" as="geometry" />
        </mxCell>
        <mxCell id="3uG8G9ZaTZoT1gMZAGrr-44" value="Serotoninergico" style="rounded=1;fillColor=#bac8d3;strokeColor=#23445d;" parent="1" vertex="1">
          <mxGeometry x="599" y="388" width="88" height="30" as="geometry" />
        </mxCell>
        <mxCell id="3uG8G9ZaTZoT1gMZAGrr-45" value="" style="edgeStyle=elbowEdgeStyle;elbow=vertical;" parent="1" source="3uG8G9ZaTZoT1gMZAGrr-38" target="3uG8G9ZaTZoT1gMZAGrr-44" edge="1">
          <mxGeometry relative="1" as="geometry" />
        </mxCell>
        <mxCell id="3uG8G9ZaTZoT1gMZAGrr-46" value="Anticolinergico" style="rounded=1;fillColor=#ffcccc;strokeColor=#36393d;" parent="1" vertex="1">
          <mxGeometry x="719.04" y="388" width="100.96" height="30" as="geometry" />
        </mxCell>
        <mxCell id="3uG8G9ZaTZoT1gMZAGrr-47" value="" style="edgeStyle=elbowEdgeStyle;elbow=vertical;" parent="1" source="3uG8G9ZaTZoT1gMZAGrr-40" target="3uG8G9ZaTZoT1gMZAGrr-46" edge="1">
          <mxGeometry relative="1" as="geometry" />
        </mxCell>
        <mxCell id="3uG8G9ZaTZoT1gMZAGrr-48" value="Anfetaminas&#xa;Cocaina" style="rounded=1;fillColor=#fad7ac;strokeColor=#b46504;" parent="1" vertex="1">
          <mxGeometry x="471" y="468" width="101" height="30" as="geometry" />
        </mxCell>
        <mxCell id="3uG8G9ZaTZoT1gMZAGrr-49" value="" style="edgeStyle=elbowEdgeStyle;elbow=vertical;fillColor=#fad7ac;strokeColor=#b46504;" parent="1" source="3uG8G9ZaTZoT1gMZAGrr-42" target="3uG8G9ZaTZoT1gMZAGrr-48" edge="1">
          <mxGeometry relative="1" as="geometry" />
        </mxCell>
        <mxCell id="3uG8G9ZaTZoT1gMZAGrr-50" value="ISRS" style="rounded=1;fillColor=#bac8d3;strokeColor=#23445d;" parent="1" vertex="1">
          <mxGeometry x="602.0023437499999" y="468" width="80" height="30" as="geometry" />
        </mxCell>
        <mxCell id="3uG8G9ZaTZoT1gMZAGrr-51" value="" style="edgeStyle=elbowEdgeStyle;elbow=vertical;fillColor=#bac8d3;strokeColor=#23445d;" parent="1" source="3uG8G9ZaTZoT1gMZAGrr-44" target="3uG8G9ZaTZoT1gMZAGrr-50" edge="1">
          <mxGeometry relative="1" as="geometry" />
        </mxCell>
        <mxCell id="3uG8G9ZaTZoT1gMZAGrr-52" value="Estreñimiento" style="rounded=1;fillColor=#fad7ac;strokeColor=#b46504;" parent="1" vertex="1">
          <mxGeometry x="482.0023437499999" y="548" width="80" height="30" as="geometry" />
        </mxCell>
        <mxCell id="3uG8G9ZaTZoT1gMZAGrr-53" value="" style="edgeStyle=elbowEdgeStyle;elbow=vertical;fillColor=#fad7ac;strokeColor=#b46504;" parent="1" source="3uG8G9ZaTZoT1gMZAGrr-48" target="3uG8G9ZaTZoT1gMZAGrr-52" edge="1">
          <mxGeometry relative="1" as="geometry" />
        </mxCell>
        <mxCell id="3uG8G9ZaTZoT1gMZAGrr-54" value="Diarrea&#xa;Hiperreflexia" style="rounded=1;fillColor=#bac8d3;strokeColor=#23445d;" parent="1" vertex="1">
          <mxGeometry x="602.0023437499999" y="548" width="80" height="30" as="geometry" />
        </mxCell>
        <mxCell id="3uG8G9ZaTZoT1gMZAGrr-55" value="" style="edgeStyle=elbowEdgeStyle;elbow=vertical;fillColor=#bac8d3;strokeColor=#23445d;" parent="1" source="3uG8G9ZaTZoT1gMZAGrr-50" target="3uG8G9ZaTZoT1gMZAGrr-54" edge="1">
          <mxGeometry relative="1" as="geometry" />
        </mxCell>
        <mxCell id="3uG8G9ZaTZoT1gMZAGrr-56" value="Antihistaminicos&#xa;Triciclicos. Atropina" style="rounded=1;fillColor=#ffcccc;strokeColor=#36393d;" parent="1" vertex="1">
          <mxGeometry x="715.2" y="468" width="109.8" height="30" as="geometry" />
        </mxCell>
        <mxCell id="3uG8G9ZaTZoT1gMZAGrr-57" value="" style="edgeStyle=elbowEdgeStyle;elbow=vertical;fillColor=#ffcccc;strokeColor=#36393d;" parent="1" source="3uG8G9ZaTZoT1gMZAGrr-46" target="3uG8G9ZaTZoT1gMZAGrr-56" edge="1">
          <mxGeometry relative="1" as="geometry" />
        </mxCell>
        <mxCell id="3uG8G9ZaTZoT1gMZAGrr-58" value="Estreñimiento" style="rounded=1;fillColor=#ffcccc;strokeColor=#36393d;" parent="1" vertex="1">
          <mxGeometry x="730.1976562499999" y="548" width="80" height="30" as="geometry" />
        </mxCell>
        <mxCell id="3uG8G9ZaTZoT1gMZAGrr-59" value="" style="edgeStyle=elbowEdgeStyle;elbow=vertical;fillColor=#ffcccc;strokeColor=#36393d;" parent="1" source="3uG8G9ZaTZoT1gMZAGrr-56" target="3uG8G9ZaTZoT1gMZAGrr-58" edge="1">
          <mxGeometry relative="1" as="geometry" />
        </mxCell>
        <mxCell id="3uG8G9ZaTZoT1gMZAGrr-60" value="Tx Sintomatico" style="rounded=1;align=left;fillColor=#fad7ac;strokeColor=#b46504;" parent="1" vertex="1">
          <mxGeometry x="482" y="628" width="79" height="30" as="geometry" />
        </mxCell>
        <mxCell id="3uG8G9ZaTZoT1gMZAGrr-61" value="" style="edgeStyle=elbowEdgeStyle;elbow=vertical;fillColor=#fad7ac;strokeColor=#b46504;" parent="1" source="3uG8G9ZaTZoT1gMZAGrr-52" target="3uG8G9ZaTZoT1gMZAGrr-60" edge="1">
          <mxGeometry relative="1" as="geometry" />
        </mxCell>
        <mxCell id="3uG8G9ZaTZoT1gMZAGrr-62" value="Tx Sintomatico" style="rounded=1;fillColor=#bac8d3;strokeColor=#23445d;" parent="1" vertex="1">
          <mxGeometry x="602.0023437499999" y="628" width="80" height="30" as="geometry" />
        </mxCell>
        <mxCell id="3uG8G9ZaTZoT1gMZAGrr-63" value="" style="edgeStyle=elbowEdgeStyle;elbow=vertical;fillColor=#bac8d3;strokeColor=#23445d;" parent="1" source="3uG8G9ZaTZoT1gMZAGrr-54" target="3uG8G9ZaTZoT1gMZAGrr-62" edge="1">
          <mxGeometry relative="1" as="geometry" />
        </mxCell>
        <mxCell id="3uG8G9ZaTZoT1gMZAGrr-64" value="Fisostigmina" style="rounded=1;fillColor=#ffcccc;strokeColor=#36393d;" parent="1" vertex="1">
          <mxGeometry x="730.1976562499999" y="628" width="80" height="30" as="geometry" />
        </mxCell>
        <mxCell id="3uG8G9ZaTZoT1gMZAGrr-65" value="" style="edgeStyle=elbowEdgeStyle;elbow=vertical;fillColor=#ffcccc;strokeColor=#36393d;" parent="1" source="3uG8G9ZaTZoT1gMZAGrr-58" target="3uG8G9ZaTZoT1gMZAGrr-64" edge="1">
          <mxGeometry relative="1" as="geometry" />
        </mxCell>
        <mxCell id="3uG8G9ZaTZoT1gMZAGrr-73" value="" style="edgeStyle=elbowEdgeStyle;elbow=vertical;" parent="1" target="3uG8G9ZaTZoT1gMZAGrr-71" edge="1">
          <mxGeometry relative="1" as="geometry">
            <mxPoint x="182.0023437499999" y="323" as="sourcePoint" />
            <mxPoint x="182" y="323" as="targetPoint" />
          </mxGeometry>
        </mxCell>
        <mxCell id="3uG8G9ZaTZoT1gMZAGrr-71" value="Humedo" style="rounded=1;fillColor=#CFEFFF;strokeColor=none;strokeWidth=1;gradientColor=#57ADD9;" parent="1" vertex="1">
          <mxGeometry x="143" y="308" width="80" height="30" as="geometry" />
        </mxCell>
        <mxCell id="3uG8G9ZaTZoT1gMZAGrr-75" value="Lavado gastrico esta en desuso solo para ingestas menores de 1h y como el carbon ambos esyan contraindicado en causticos y petroleo" style="shape=note;whiteSpace=wrap;html=1;backgroundOutline=1;fontColor=#000000;darkOpacity=0.05;fillColor=#FFF9B2;strokeColor=none;fillStyle=solid;direction=west;gradientDirection=north;gradientColor=#FFF2A1;shadow=1;size=20;pointerEvents=1;align=left;verticalAlign=top;" parent="1" vertex="1">
          <mxGeometry x="101" y="885" width="140" height="110" as="geometry" />
        </mxCell>
        <mxCell id="3uG8G9ZaTZoT1gMZAGrr-78" value="" style="edgeStyle=orthogonalEdgeStyle;rounded=0;orthogonalLoop=1;jettySize=auto;html=1;" parent="1" source="3uG8G9ZaTZoT1gMZAGrr-76" target="3uG8G9ZaTZoT1gMZAGrr-77" edge="1">
          <mxGeometry relative="1" as="geometry" />
        </mxCell>
        <mxCell id="3uG8G9ZaTZoT1gMZAGrr-76" value="Carbon activado es de eleccion antes de 2 horas de la ingesta" style="rounded=1;whiteSpace=wrap;html=1;fillColor=#1ba1e2;fontColor=#ffffff;strokeColor=#006EAF;strokeWidth=3;" parent="1" vertex="1">
          <mxGeometry x="184" y="690" width="120" height="60" as="geometry" />
        </mxCell>
        <mxCell id="3uG8G9ZaTZoT1gMZAGrr-80" value="" style="edgeStyle=orthogonalEdgeStyle;rounded=0;orthogonalLoop=1;jettySize=auto;html=1;" parent="1" source="3uG8G9ZaTZoT1gMZAGrr-77" target="3uG8G9ZaTZoT1gMZAGrr-79" edge="1">
          <mxGeometry relative="1" as="geometry" />
        </mxCell>
        <mxCell id="3uG8G9ZaTZoT1gMZAGrr-77" value="Cx en caso de body packers" style="rounded=1;whiteSpace=wrap;html=1;fillColor=#1ba1e2;fontColor=#ffffff;strokeColor=#006EAF;strokeWidth=3;" parent="1" vertex="1">
          <mxGeometry x="384" y="690" width="120" height="60" as="geometry" />
        </mxCell>
        <mxCell id="3uG8G9ZaTZoT1gMZAGrr-79" value="Diuresis forzada util en salicilatos y litio" style="rounded=1;whiteSpace=wrap;html=1;fillColor=#1ba1e2;fontColor=#ffffff;strokeColor=#006EAF;strokeWidth=3;" parent="1" vertex="1">
          <mxGeometry x="584" y="690" width="120" height="60" as="geometry" />
        </mxCell>
        <mxCell id="3uG8G9ZaTZoT1gMZAGrr-81" value="Antidotos" style="shape=table;startSize=30;container=1;collapsible=0;childLayout=tableLayout;strokeColor=#2D7600;fontSize=16;fillColor=#60a917;fontColor=#ffffff;strokeWidth=3;fontStyle=1" parent="1" vertex="1">
          <mxGeometry x="420" y="780" width="278" height="270" as="geometry" />
        </mxCell>
        <mxCell id="3uG8G9ZaTZoT1gMZAGrr-82" value="" style="shape=tableRow;horizontal=0;startSize=0;swimlaneHead=0;swimlaneBody=0;strokeColor=inherit;top=0;left=0;bottom=0;right=0;collapsible=0;dropTarget=0;fillColor=none;points=[[0,0.5],[1,0.5]];portConstraint=eastwest;fontSize=16;" parent="3uG8G9ZaTZoT1gMZAGrr-81" vertex="1">
          <mxGeometry y="30" width="278" height="40" as="geometry" />
        </mxCell>
        <mxCell id="3uG8G9ZaTZoT1gMZAGrr-83" value="Paracetamol" style="shape=partialRectangle;html=1;whiteSpace=wrap;connectable=0;strokeColor=#ae4132;overflow=hidden;fillColor=#fad9d5;top=0;left=0;bottom=0;right=0;pointerEvents=1;fontSize=16;" parent="3uG8G9ZaTZoT1gMZAGrr-82" vertex="1">
          <mxGeometry width="139" height="40" as="geometry">
            <mxRectangle width="139" height="40" as="alternateBounds" />
          </mxGeometry>
        </mxCell>
        <mxCell id="3uG8G9ZaTZoT1gMZAGrr-84" value="N-Acetilcisteina" style="shape=partialRectangle;html=1;whiteSpace=wrap;connectable=0;strokeColor=#36393d;overflow=hidden;fillColor=#ffcc99;top=0;left=0;bottom=0;right=0;pointerEvents=1;fontSize=16;" parent="3uG8G9ZaTZoT1gMZAGrr-82" vertex="1">
          <mxGeometry x="139" width="139" height="40" as="geometry">
            <mxRectangle width="139" height="40" as="alternateBounds" />
          </mxGeometry>
        </mxCell>
        <mxCell id="3uG8G9ZaTZoT1gMZAGrr-86" value="" style="shape=tableRow;horizontal=0;startSize=0;swimlaneHead=0;swimlaneBody=0;strokeColor=inherit;top=0;left=0;bottom=0;right=0;collapsible=0;dropTarget=0;fillColor=none;points=[[0,0.5],[1,0.5]];portConstraint=eastwest;fontSize=16;" parent="3uG8G9ZaTZoT1gMZAGrr-81" vertex="1">
          <mxGeometry y="70" width="278" height="40" as="geometry" />
        </mxCell>
        <mxCell id="3uG8G9ZaTZoT1gMZAGrr-87" value="Metahemoglobina" style="shape=partialRectangle;html=1;whiteSpace=wrap;connectable=0;strokeColor=#ae4132;overflow=hidden;fillColor=#fad9d5;top=0;left=0;bottom=0;right=0;pointerEvents=1;fontSize=16;" parent="3uG8G9ZaTZoT1gMZAGrr-86" vertex="1">
          <mxGeometry width="139" height="40" as="geometry">
            <mxRectangle width="139" height="40" as="alternateBounds" />
          </mxGeometry>
        </mxCell>
        <mxCell id="3uG8G9ZaTZoT1gMZAGrr-88" value="Azul de metileno" style="shape=partialRectangle;html=1;whiteSpace=wrap;connectable=0;strokeColor=#36393d;overflow=hidden;fillColor=#ffcc99;top=0;left=0;bottom=0;right=0;pointerEvents=1;fontSize=16;" parent="3uG8G9ZaTZoT1gMZAGrr-86" vertex="1">
          <mxGeometry x="139" width="139" height="40" as="geometry">
            <mxRectangle width="139" height="40" as="alternateBounds" />
          </mxGeometry>
        </mxCell>
        <mxCell id="3uG8G9ZaTZoT1gMZAGrr-94" style="shape=tableRow;horizontal=0;startSize=0;swimlaneHead=0;swimlaneBody=0;strokeColor=inherit;top=0;left=0;bottom=0;right=0;collapsible=0;dropTarget=0;fillColor=none;points=[[0,0.5],[1,0.5]];portConstraint=eastwest;fontSize=16;" parent="3uG8G9ZaTZoT1gMZAGrr-81" vertex="1">
          <mxGeometry y="110" width="278" height="40" as="geometry" />
        </mxCell>
        <mxCell id="3uG8G9ZaTZoT1gMZAGrr-95" value="Hierro" style="shape=partialRectangle;html=1;whiteSpace=wrap;connectable=0;strokeColor=#ae4132;overflow=hidden;fillColor=#fad9d5;top=0;left=0;bottom=0;right=0;pointerEvents=1;fontSize=16;" parent="3uG8G9ZaTZoT1gMZAGrr-94" vertex="1">
          <mxGeometry width="139" height="40" as="geometry">
            <mxRectangle width="139" height="40" as="alternateBounds" />
          </mxGeometry>
        </mxCell>
        <mxCell id="3uG8G9ZaTZoT1gMZAGrr-96" value="Desferroxamina" style="shape=partialRectangle;html=1;whiteSpace=wrap;connectable=0;strokeColor=#36393d;overflow=hidden;fillColor=#ffcc99;top=0;left=0;bottom=0;right=0;pointerEvents=1;fontSize=16;" parent="3uG8G9ZaTZoT1gMZAGrr-94" vertex="1">
          <mxGeometry x="139" width="139" height="40" as="geometry">
            <mxRectangle width="139" height="40" as="alternateBounds" />
          </mxGeometry>
        </mxCell>
        <mxCell id="3uG8G9ZaTZoT1gMZAGrr-97" style="shape=tableRow;horizontal=0;startSize=0;swimlaneHead=0;swimlaneBody=0;strokeColor=inherit;top=0;left=0;bottom=0;right=0;collapsible=0;dropTarget=0;fillColor=none;points=[[0,0.5],[1,0.5]];portConstraint=eastwest;fontSize=16;" parent="3uG8G9ZaTZoT1gMZAGrr-81" vertex="1">
          <mxGeometry y="150" width="278" height="40" as="geometry" />
        </mxCell>
        <mxCell id="3uG8G9ZaTZoT1gMZAGrr-98" value="Metanol" style="shape=partialRectangle;html=1;whiteSpace=wrap;connectable=0;strokeColor=#ae4132;overflow=hidden;fillColor=#fad9d5;top=0;left=0;bottom=0;right=0;pointerEvents=1;fontSize=16;" parent="3uG8G9ZaTZoT1gMZAGrr-97" vertex="1">
          <mxGeometry width="139" height="40" as="geometry">
            <mxRectangle width="139" height="40" as="alternateBounds" />
          </mxGeometry>
        </mxCell>
        <mxCell id="3uG8G9ZaTZoT1gMZAGrr-99" value="Etanol / Fomepizol" style="shape=partialRectangle;html=1;whiteSpace=wrap;connectable=0;strokeColor=#36393d;overflow=hidden;fillColor=#ffcc99;top=0;left=0;bottom=0;right=0;pointerEvents=1;fontSize=16;" parent="3uG8G9ZaTZoT1gMZAGrr-97" vertex="1">
          <mxGeometry x="139" width="139" height="40" as="geometry">
            <mxRectangle width="139" height="40" as="alternateBounds" />
          </mxGeometry>
        </mxCell>
        <mxCell id="3uG8G9ZaTZoT1gMZAGrr-100" style="shape=tableRow;horizontal=0;startSize=0;swimlaneHead=0;swimlaneBody=0;strokeColor=inherit;top=0;left=0;bottom=0;right=0;collapsible=0;dropTarget=0;fillColor=none;points=[[0,0.5],[1,0.5]];portConstraint=eastwest;fontSize=16;" parent="3uG8G9ZaTZoT1gMZAGrr-81" vertex="1">
          <mxGeometry y="190" width="278" height="40" as="geometry" />
        </mxCell>
        <mxCell id="3uG8G9ZaTZoT1gMZAGrr-101" value="BetaBloq / Ca ant." style="shape=partialRectangle;html=1;whiteSpace=wrap;connectable=0;strokeColor=#ae4132;overflow=hidden;fillColor=#fad9d5;top=0;left=0;bottom=0;right=0;pointerEvents=1;fontSize=16;" parent="3uG8G9ZaTZoT1gMZAGrr-100" vertex="1">
          <mxGeometry width="139" height="40" as="geometry">
            <mxRectangle width="139" height="40" as="alternateBounds" />
          </mxGeometry>
        </mxCell>
        <mxCell id="3uG8G9ZaTZoT1gMZAGrr-102" value="Glucagon" style="shape=partialRectangle;html=1;whiteSpace=wrap;connectable=0;strokeColor=#36393d;overflow=hidden;fillColor=#ffcc99;top=0;left=0;bottom=0;right=0;pointerEvents=1;fontSize=16;" parent="3uG8G9ZaTZoT1gMZAGrr-100" vertex="1">
          <mxGeometry x="139" width="139" height="40" as="geometry">
            <mxRectangle width="139" height="40" as="alternateBounds" />
          </mxGeometry>
        </mxCell>
        <mxCell id="3uG8G9ZaTZoT1gMZAGrr-103" style="shape=tableRow;horizontal=0;startSize=0;swimlaneHead=0;swimlaneBody=0;strokeColor=inherit;top=0;left=0;bottom=0;right=0;collapsible=0;dropTarget=0;fillColor=none;points=[[0,0.5],[1,0.5]];portConstraint=eastwest;fontSize=16;" parent="3uG8G9ZaTZoT1gMZAGrr-81" vertex="1">
          <mxGeometry y="230" width="278" height="40" as="geometry" />
        </mxCell>
        <mxCell id="3uG8G9ZaTZoT1gMZAGrr-104" value="Hipertermia" style="shape=partialRectangle;html=1;whiteSpace=wrap;connectable=0;strokeColor=#ae4132;overflow=hidden;fillColor=#fad9d5;top=0;left=0;bottom=0;right=0;pointerEvents=1;fontSize=16;" parent="3uG8G9ZaTZoT1gMZAGrr-103" vertex="1">
          <mxGeometry width="139" height="40" as="geometry">
            <mxRectangle width="139" height="40" as="alternateBounds" />
          </mxGeometry>
        </mxCell>
        <mxCell id="3uG8G9ZaTZoT1gMZAGrr-105" value="Dantroleno" style="shape=partialRectangle;html=1;whiteSpace=wrap;connectable=0;strokeColor=#36393d;overflow=hidden;fillColor=#ffcc99;top=0;left=0;bottom=0;right=0;pointerEvents=1;fontSize=16;" parent="3uG8G9ZaTZoT1gMZAGrr-103" vertex="1">
          <mxGeometry x="139" width="139" height="40" as="geometry">
            <mxRectangle width="139" height="40" as="alternateBounds" />
          </mxGeometry>
        </mxCell>
        <mxCell id="DWU9YE3UGViJsSs5nR38-1" value="Triage" style="text;strokeColor=none;fillColor=none;html=1;fontSize=24;fontStyle=1;verticalAlign=middle;align=left;fontColor=#CC6600;" vertex="1" parent="1">
          <mxGeometry x="40" y="-771" width="180" height="40" as="geometry" />
        </mxCell>
        <mxCell id="DWU9YE3UGViJsSs5nR38-5" value="" style="edgeStyle=orthogonalEdgeStyle;rounded=1;orthogonalLoop=1;jettySize=auto;html=1;" edge="1" parent="1" source="DWU9YE3UGViJsSs5nR38-3" target="DWU9YE3UGViJsSs5nR38-4">
          <mxGeometry relative="1" as="geometry" />
        </mxCell>
        <mxCell id="DWU9YE3UGViJsSs5nR38-31" value="" style="edgeStyle=orthogonalEdgeStyle;rounded=1;orthogonalLoop=1;jettySize=auto;html=1;" edge="1" parent="1" source="DWU9YE3UGViJsSs5nR38-3" target="DWU9YE3UGViJsSs5nR38-30">
          <mxGeometry relative="1" as="geometry" />
        </mxCell>
        <mxCell id="DWU9YE3UGViJsSs5nR38-3" value="Se levanta y camina" style="rounded=1;whiteSpace=wrap;html=1;fillColor=#1ba1e2;fontColor=#ffffff;strokeColor=#006EAF;strokeWidth=3;" vertex="1" parent="1">
          <mxGeometry x="136" y="-731" width="82" height="30" as="geometry" />
        </mxCell>
        <mxCell id="DWU9YE3UGViJsSs5nR38-9" value="" style="edgeStyle=orthogonalEdgeStyle;rounded=1;orthogonalLoop=1;jettySize=auto;html=1;exitX=0.5;exitY=1;exitDx=0;exitDy=0;" edge="1" parent="1" source="DWU9YE3UGViJsSs5nR38-4" target="DWU9YE3UGViJsSs5nR38-8">
          <mxGeometry relative="1" as="geometry" />
        </mxCell>
        <mxCell id="DWU9YE3UGViJsSs5nR38-11" value="" style="edgeStyle=orthogonalEdgeStyle;rounded=1;orthogonalLoop=1;jettySize=auto;html=1;exitX=0.5;exitY=1;exitDx=0;exitDy=0;" edge="1" parent="1" source="DWU9YE3UGViJsSs5nR38-4" target="DWU9YE3UGViJsSs5nR38-10">
          <mxGeometry relative="1" as="geometry" />
        </mxCell>
        <mxCell id="DWU9YE3UGViJsSs5nR38-4" value="Respira?" style="rounded=1;whiteSpace=wrap;html=1;fillColor=#1ba1e2;fontColor=#ffffff;strokeColor=#006EAF;strokeWidth=3;" vertex="1" parent="1">
          <mxGeometry x="465" y="-731" width="82" height="30" as="geometry" />
        </mxCell>
        <mxCell id="DWU9YE3UGViJsSs5nR38-15" value="" style="edgeStyle=orthogonalEdgeStyle;rounded=1;orthogonalLoop=1;jettySize=auto;html=1;" edge="1" parent="1" source="DWU9YE3UGViJsSs5nR38-8" target="DWU9YE3UGViJsSs5nR38-14">
          <mxGeometry relative="1" as="geometry" />
        </mxCell>
        <mxCell id="DWU9YE3UGViJsSs5nR38-17" value="" style="edgeStyle=orthogonalEdgeStyle;rounded=1;orthogonalLoop=1;jettySize=auto;html=1;" edge="1" parent="1" source="DWU9YE3UGViJsSs5nR38-8" target="DWU9YE3UGViJsSs5nR38-16">
          <mxGeometry relative="1" as="geometry" />
        </mxCell>
        <mxCell id="DWU9YE3UGViJsSs5nR38-8" value="Si" style="rounded=1;whiteSpace=wrap;html=1;fillColor=#1ba1e2;fontColor=#ffffff;strokeColor=#006EAF;strokeWidth=3;" vertex="1" parent="1">
          <mxGeometry x="274" y="-651" width="82" height="30" as="geometry" />
        </mxCell>
        <mxCell id="DWU9YE3UGViJsSs5nR38-19" value="" style="edgeStyle=orthogonalEdgeStyle;rounded=1;orthogonalLoop=1;jettySize=auto;html=1;exitX=0.5;exitY=1;exitDx=0;exitDy=0;" edge="1" parent="1" source="DWU9YE3UGViJsSs5nR38-10" target="DWU9YE3UGViJsSs5nR38-18">
          <mxGeometry relative="1" as="geometry" />
        </mxCell>
        <mxCell id="DWU9YE3UGViJsSs5nR38-10" value="No" style="rounded=1;whiteSpace=wrap;html=1;fillColor=#1ba1e2;fontColor=#ffffff;strokeColor=#006EAF;strokeWidth=3;" vertex="1" parent="1">
          <mxGeometry x="667" y="-651" width="82" height="30" as="geometry" />
        </mxCell>
        <mxCell id="DWU9YE3UGViJsSs5nR38-29" value="" style="edgeStyle=orthogonalEdgeStyle;rounded=0;orthogonalLoop=1;jettySize=auto;html=1;" edge="1" parent="1" source="DWU9YE3UGViJsSs5nR38-14" target="DWU9YE3UGViJsSs5nR38-28">
          <mxGeometry relative="1" as="geometry" />
        </mxCell>
        <mxCell id="DWU9YE3UGViJsSs5nR38-14" value="FR &amp;gt;30" style="rounded=1;whiteSpace=wrap;html=1;fillColor=#1ba1e2;strokeColor=#006EAF;fontColor=#ffffff;strokeWidth=3;" vertex="1" parent="1">
          <mxGeometry x="185.9" y="-552" width="82" height="30" as="geometry" />
        </mxCell>
        <mxCell id="DWU9YE3UGViJsSs5nR38-33" value="" style="edgeStyle=orthogonalEdgeStyle;rounded=1;orthogonalLoop=1;jettySize=auto;html=1;" edge="1" parent="1" source="DWU9YE3UGViJsSs5nR38-16" target="DWU9YE3UGViJsSs5nR38-32">
          <mxGeometry relative="1" as="geometry" />
        </mxCell>
        <mxCell id="DWU9YE3UGViJsSs5nR38-16" value="&amp;lt;30" style="rounded=1;whiteSpace=wrap;html=1;fillColor=#1ba1e2;fontColor=#ffffff;strokeColor=#006EAF;strokeWidth=3;" vertex="1" parent="1">
          <mxGeometry x="392" y="-552" width="82" height="30" as="geometry" />
        </mxCell>
        <mxCell id="DWU9YE3UGViJsSs5nR38-21" value="" style="edgeStyle=orthogonalEdgeStyle;rounded=1;orthogonalLoop=1;jettySize=auto;html=1;" edge="1" parent="1" source="DWU9YE3UGViJsSs5nR38-18" target="DWU9YE3UGViJsSs5nR38-20">
          <mxGeometry relative="1" as="geometry" />
        </mxCell>
        <mxCell id="DWU9YE3UGViJsSs5nR38-23" value="" style="edgeStyle=orthogonalEdgeStyle;rounded=1;orthogonalLoop=1;jettySize=auto;html=1;" edge="1" parent="1" source="DWU9YE3UGViJsSs5nR38-18" target="DWU9YE3UGViJsSs5nR38-22">
          <mxGeometry relative="1" as="geometry" />
        </mxCell>
        <mxCell id="DWU9YE3UGViJsSs5nR38-18" value="Abrir via aerea" style="rounded=1;whiteSpace=wrap;html=1;fillColor=#1ba1e2;fontColor=#ffffff;strokeColor=#006EAF;strokeWidth=3;" vertex="1" parent="1">
          <mxGeometry x="667.7" y="-562" width="82" height="30" as="geometry" />
        </mxCell>
        <mxCell id="DWU9YE3UGViJsSs5nR38-55" style="edgeStyle=orthogonalEdgeStyle;rounded=0;orthogonalLoop=1;jettySize=auto;html=1;entryX=0.5;entryY=0;entryDx=0;entryDy=0;" edge="1" parent="1" source="DWU9YE3UGViJsSs5nR38-20" target="DWU9YE3UGViJsSs5nR38-26">
          <mxGeometry relative="1" as="geometry" />
        </mxCell>
        <mxCell id="DWU9YE3UGViJsSs5nR38-20" value="Si respira" style="rounded=1;whiteSpace=wrap;html=1;fillColor=#1ba1e2;fontColor=#ffffff;strokeColor=#006EAF;strokeWidth=3;" vertex="1" parent="1">
          <mxGeometry x="613.2" y="-492" width="82" height="30" as="geometry" />
        </mxCell>
        <mxCell id="DWU9YE3UGViJsSs5nR38-25" value="" style="edgeStyle=orthogonalEdgeStyle;rounded=1;orthogonalLoop=1;jettySize=auto;html=1;" edge="1" parent="1" source="DWU9YE3UGViJsSs5nR38-22" target="DWU9YE3UGViJsSs5nR38-24">
          <mxGeometry relative="1" as="geometry" />
        </mxCell>
        <mxCell id="DWU9YE3UGViJsSs5nR38-22" value="No responde" style="rounded=1;whiteSpace=wrap;html=1;fillColor=#1ba1e2;fontColor=#ffffff;strokeColor=#006EAF;strokeWidth=3;" vertex="1" parent="1">
          <mxGeometry x="720.74" y="-492" width="82" height="30" as="geometry" />
        </mxCell>
        <mxCell id="DWU9YE3UGViJsSs5nR38-24" value="Negro" style="rounded=0;whiteSpace=wrap;html=1;shape=rhombus;perimeter=rhombusPerimeter;fillColor=#000000;fontColor=#FFFFFF;strokeColor=#808080;strokeWidth=3;" vertex="1" parent="1">
          <mxGeometry x="728.8000000000001" y="-423" width="65" height="42" as="geometry" />
        </mxCell>
        <mxCell id="DWU9YE3UGViJsSs5nR38-26" value="Rojo" style="rounded=0;whiteSpace=wrap;html=1;shape=rhombus;perimeter=rhombusPerimeter;fillColor=#e51400;fontColor=#ffffff;strokeColor=#B20000;strokeWidth=3;" vertex="1" parent="1">
          <mxGeometry x="621.2" y="-423" width="65" height="42" as="geometry" />
        </mxCell>
        <mxCell id="DWU9YE3UGViJsSs5nR38-28" value="Rojo" style="rounded=0;whiteSpace=wrap;html=1;shape=rhombus;perimeter=rhombusPerimeter;fillColor=#e51400;fontColor=#ffffff;strokeColor=#B20000;strokeWidth=3;" vertex="1" parent="1">
          <mxGeometry x="194.9" y="-482" width="65" height="42" as="geometry" />
        </mxCell>
        <mxCell id="DWU9YE3UGViJsSs5nR38-30" value="Verde" style="rounded=0;whiteSpace=wrap;html=1;shape=rhombus;perimeter=rhombusPerimeter;fillColor=#6d8764;fontColor=#ffffff;strokeColor=#3A5431;strokeWidth=3;" vertex="1" parent="1">
          <mxGeometry x="145" y="-671" width="65" height="42" as="geometry" />
        </mxCell>
        <mxCell id="DWU9YE3UGViJsSs5nR38-35" value="" style="edgeStyle=orthogonalEdgeStyle;rounded=1;orthogonalLoop=1;jettySize=auto;html=1;exitX=0.5;exitY=1;exitDx=0;exitDy=0;" edge="1" parent="1" source="DWU9YE3UGViJsSs5nR38-16" target="DWU9YE3UGViJsSs5nR38-34">
          <mxGeometry relative="1" as="geometry" />
        </mxCell>
        <mxCell id="DWU9YE3UGViJsSs5nR38-43" style="edgeStyle=orthogonalEdgeStyle;rounded=1;orthogonalLoop=1;jettySize=auto;html=1;entryX=0.5;entryY=0;entryDx=0;entryDy=0;" edge="1" parent="1" source="DWU9YE3UGViJsSs5nR38-32" target="DWU9YE3UGViJsSs5nR38-41">
          <mxGeometry relative="1" as="geometry" />
        </mxCell>
        <mxCell id="DWU9YE3UGViJsSs5nR38-48" style="edgeStyle=orthogonalEdgeStyle;rounded=1;orthogonalLoop=1;jettySize=auto;html=1;entryX=0.5;entryY=0;entryDx=0;entryDy=0;" edge="1" parent="1" source="DWU9YE3UGViJsSs5nR38-32" target="DWU9YE3UGViJsSs5nR38-46">
          <mxGeometry relative="1" as="geometry" />
        </mxCell>
        <mxCell id="DWU9YE3UGViJsSs5nR38-32" value="&lt;ul&gt;&lt;li&gt;Pulso radial +&lt;/li&gt;&lt;li&gt;Llenado cap &amp;lt;2s&lt;/li&gt;&lt;li&gt;FC &amp;lt; 120&lt;/li&gt;&lt;/ul&gt;" style="rounded=1;whiteSpace=wrap;html=1;align=left;spacingLeft=-22;fillColor=#1ba1e2;fontColor=#ffffff;strokeColor=#006EAF;strokeWidth=3;" vertex="1" parent="1">
          <mxGeometry x="463" y="-432" width="99" height="70" as="geometry" />
        </mxCell>
        <mxCell id="DWU9YE3UGViJsSs5nR38-53" style="edgeStyle=orthogonalEdgeStyle;rounded=1;orthogonalLoop=1;jettySize=auto;html=1;" edge="1" parent="1" source="DWU9YE3UGViJsSs5nR38-34" target="DWU9YE3UGViJsSs5nR38-39">
          <mxGeometry relative="1" as="geometry" />
        </mxCell>
        <mxCell id="DWU9YE3UGViJsSs5nR38-34" value="&lt;ul&gt;&lt;li&gt;Pulso radial -Llenado cap &amp;gt;2s&lt;/li&gt;&lt;li&gt;FC &amp;gt; 120&lt;/li&gt;&lt;/ul&gt;" style="rounded=1;whiteSpace=wrap;html=1;align=left;spacingLeft=-22;fillColor=#1ba1e2;fontColor=#ffffff;strokeColor=#006EAF;strokeWidth=3;" vertex="1" parent="1">
          <mxGeometry x="304" y="-432" width="99" height="70" as="geometry" />
        </mxCell>
        <mxCell id="DWU9YE3UGViJsSs5nR38-39" value="Rojo" style="rounded=0;whiteSpace=wrap;html=1;shape=rhombus;perimeter=rhombusPerimeter;fillColor=#e51400;fontColor=#ffffff;strokeColor=#B20000;strokeWidth=3;" vertex="1" parent="1">
          <mxGeometry x="218" y="-350" width="65" height="42" as="geometry" />
        </mxCell>
        <mxCell id="DWU9YE3UGViJsSs5nR38-45" value="" style="edgeStyle=orthogonalEdgeStyle;rounded=1;orthogonalLoop=1;jettySize=auto;html=1;" edge="1" parent="1" source="DWU9YE3UGViJsSs5nR38-41" target="DWU9YE3UGViJsSs5nR38-44">
          <mxGeometry relative="1" as="geometry" />
        </mxCell>
        <mxCell id="DWU9YE3UGViJsSs5nR38-41" value="Realiza ordenes simples" style="rounded=1;whiteSpace=wrap;html=1;fillColor=#1ba1e2;fontColor=#ffffff;strokeColor=#006EAF;strokeWidth=3;" vertex="1" parent="1">
          <mxGeometry x="530" y="-312" width="119" height="30" as="geometry" />
        </mxCell>
        <mxCell id="DWU9YE3UGViJsSs5nR38-44" value="Amarillo" style="rounded=0;whiteSpace=wrap;html=1;shape=rhombus;perimeter=rhombusPerimeter;fillColor=#80FF00;fontColor=#000000;strokeColor=#B09500;strokeWidth=3;" vertex="1" parent="1">
          <mxGeometry x="557.5" y="-240" width="65" height="42" as="geometry" />
        </mxCell>
        <mxCell id="DWU9YE3UGViJsSs5nR38-51" style="edgeStyle=orthogonalEdgeStyle;rounded=1;orthogonalLoop=1;jettySize=auto;html=1;" edge="1" parent="1" source="DWU9YE3UGViJsSs5nR38-46" target="DWU9YE3UGViJsSs5nR38-49">
          <mxGeometry relative="1" as="geometry" />
        </mxCell>
        <mxCell id="DWU9YE3UGViJsSs5nR38-46" value="No realiza ordenes simples" style="rounded=1;whiteSpace=wrap;html=1;fillColor=#1ba1e2;fontColor=#ffffff;strokeColor=#006EAF;strokeWidth=3;" vertex="1" parent="1">
          <mxGeometry x="397" y="-312" width="107" height="30" as="geometry" />
        </mxCell>
        <mxCell id="DWU9YE3UGViJsSs5nR38-49" value="Rojo" style="rounded=0;whiteSpace=wrap;html=1;shape=rhombus;perimeter=rhombusPerimeter;fillColor=#e51400;fontColor=#ffffff;strokeColor=#B20000;strokeWidth=3;" vertex="1" parent="1">
          <mxGeometry x="418.2" y="-240" width="65" height="42" as="geometry" />
        </mxCell>
        <mxCell id="DWU9YE3UGViJsSs5nR38-58" value="" style="edgeStyle=orthogonalEdgeStyle;rounded=0;orthogonalLoop=1;jettySize=auto;html=1;" edge="1" parent="1" source="DWU9YE3UGViJsSs5nR38-56" target="DWU9YE3UGViJsSs5nR38-57">
          <mxGeometry relative="1" as="geometry" />
        </mxCell>
        <mxCell id="DWU9YE3UGViJsSs5nR38-62" value="" style="edgeStyle=orthogonalEdgeStyle;rounded=0;orthogonalLoop=1;jettySize=auto;html=1;" edge="1" parent="1" source="DWU9YE3UGViJsSs5nR38-56" target="DWU9YE3UGViJsSs5nR38-61">
          <mxGeometry relative="1" as="geometry" />
        </mxCell>
        <mxCell id="DWU9YE3UGViJsSs5nR38-56" value="" style="ellipse;whiteSpace=wrap;html=1;aspect=fixed;strokeWidth=3;fillColor=#e51400;fontColor=#ffffff;strokeColor=#B20000;" vertex="1" parent="1">
          <mxGeometry x="70" y="-162" width="52" height="52" as="geometry" />
        </mxCell>
        <mxCell id="DWU9YE3UGViJsSs5nR38-60" value="" style="edgeStyle=orthogonalEdgeStyle;rounded=0;orthogonalLoop=1;jettySize=auto;html=1;" edge="1" parent="1" source="DWU9YE3UGViJsSs5nR38-57" target="DWU9YE3UGViJsSs5nR38-59">
          <mxGeometry relative="1" as="geometry" />
        </mxCell>
        <mxCell id="DWU9YE3UGViJsSs5nR38-64" value="" style="edgeStyle=orthogonalEdgeStyle;rounded=0;orthogonalLoop=1;jettySize=auto;html=1;" edge="1" parent="1" source="DWU9YE3UGViJsSs5nR38-57" target="DWU9YE3UGViJsSs5nR38-63">
          <mxGeometry relative="1" as="geometry" />
        </mxCell>
        <mxCell id="DWU9YE3UGViJsSs5nR38-57" value="" style="ellipse;whiteSpace=wrap;html=1;aspect=fixed;strokeWidth=3;fillColor=#e3c800;fontColor=#000000;strokeColor=#B09500;" vertex="1" parent="1">
          <mxGeometry x="70" y="-80" width="52" height="52" as="geometry" />
        </mxCell>
        <mxCell id="DWU9YE3UGViJsSs5nR38-66" value="" style="edgeStyle=orthogonalEdgeStyle;rounded=0;orthogonalLoop=1;jettySize=auto;html=1;" edge="1" parent="1" source="DWU9YE3UGViJsSs5nR38-59" target="DWU9YE3UGViJsSs5nR38-65">
          <mxGeometry relative="1" as="geometry" />
        </mxCell>
        <mxCell id="DWU9YE3UGViJsSs5nR38-59" value="" style="ellipse;whiteSpace=wrap;html=1;aspect=fixed;strokeWidth=3;fillColor=#d80073;fontColor=#ffffff;strokeColor=#A50040;" vertex="1" parent="1">
          <mxGeometry x="70" width="52" height="52" as="geometry" />
        </mxCell>
        <mxCell id="DWU9YE3UGViJsSs5nR38-61" value="&lt;ul&gt;&lt;li&gt;Respira tras abrir VA&lt;/li&gt;&lt;li&gt;FR&amp;gt;30&lt;/li&gt;&lt;li&gt;Sin pulso radial&lt;/li&gt;&lt;li&gt;Llenado cap &amp;gt;2s&lt;/li&gt;&lt;li&gt;&amp;gt;FC &amp;gt;120&lt;/li&gt;&lt;/ul&gt;" style="whiteSpace=wrap;html=1;spacingLeft=-15;align=left;" vertex="1" parent="1">
          <mxGeometry x="168" y="-174" width="152" height="76" as="geometry" />
        </mxCell>
        <mxCell id="DWU9YE3UGViJsSs5nR38-63" value="Resto de situaciones" style="whiteSpace=wrap;html=1;" vertex="1" parent="1">
          <mxGeometry x="168" y="-84" width="120" height="60" as="geometry" />
        </mxCell>
        <mxCell id="DWU9YE3UGViJsSs5nR38-65" value="Se levanta y camina" style="whiteSpace=wrap;html=1;" vertex="1" parent="1">
          <mxGeometry x="168" y="-4" width="120" height="60" as="geometry" />
        </mxCell>
      </root>
    </mxGraphModel>
  </diagram>
</mxfile>
